<svg xmlns:xlink="http://www.w3.org/1999/xlink" xmlns="http://www.w3.org/2000/svg" id="Layer_1" data-name="Layer 1" viewBox="0 0 159.57 159.59" width="159.57" height="159.59">
  <defs>
    <style>
      .cls-1 {
        fill: #74bd36;
      }

      .cls-2 {
        fill: #f7941d;
      }
    </style>
  </defs>
  <path class="cls-1" d="m79.78,0c-21.87,0-43.29,4.03-63.68,11.99l-2.96,1.16-1.16,2.96C4.01,36.55-.02,58.05,0,80.01c.04,18.28,2.87,36.24,8.48,53.55l11.62-11.62c-3.72-13.65-5.6-27.7-5.62-41.95-.02-19.06,3.31-37.77,9.86-55.66,17.8-6.53,36.45-9.86,55.45-9.86,6.33,0,12.63.37,18.86,1.12V1.03c-6.22-.7-12.53-1.03-18.86-1.03Zm78.79,61.11h-14.56c.68,5.85,1.03,11.74,1.08,17.68.12,19.35-3.18,38.31-9.86,56.46-17.8,6.53-36.43,9.86-55.45,9.86-14.31,0-28.43-1.88-42.14-5.62l-11.64,11.64c17.37,5.62,35.42,8.46,53.77,8.46,21.89,0,43.31-4.03,63.7-11.99l2.96-1.16,1.16-2.96c8.08-20.74,12.12-42.53,11.97-64.77-.04-5.91-.35-11.78-.99-17.59Z"/>
  <path class="cls-2" d="m157.81,54.91h-14.64c-1.26-8.13-3.18-16.17-5.69-24.04L56.81,111.56l-25.95,25.93-11.39,11.39c-1.12-.41-2.25-.85-3.37-1.28l-2.96-1.16-1.16-2.96c-.43-1.12-.87-2.25-1.26-3.39l11.37-11.37,25.95-25.93L128.72,22.1c-7.84-2.5-15.8-4.4-23.88-5.66V1.8c12.01,1.72,23.8,4.69,35.27,8.91,1.12.41,2.25.85,3.37,1.28l2.96,1.16,1.16,2.96c.43,1.12.87,2.25,1.28,3.37,4.22,11.54,7.22,23.38,8.93,35.44Z"/>
</svg>